<svg width="93" height="20" viewBox="0 0 93 20" fill="none" xmlns="http://www.w3.org/2000/svg">
<path d="M4.52557 19H0.571023L6.59659 1.54545H11.3523L17.3693 19H13.4148L9.04261 5.53409H8.90625L4.52557 19ZM4.27841 12.1392H13.6193V15.0199H4.27841V12.1392ZM23.0327 11.4318V19H19.402V5.90909H22.8622V8.21875H23.0156C23.3054 7.45739 23.7912 6.85511 24.473 6.41193C25.1548 5.96307 25.9815 5.73864 26.9531 5.73864C27.8622 5.73864 28.6548 5.9375 29.331 6.33523C30.0071 6.73295 30.5327 7.30114 30.9077 8.03977C31.2827 8.77273 31.4702 9.64773 31.4702 10.6648V19H27.8395V11.3125C27.8452 10.5114 27.6406 9.88636 27.2259 9.4375C26.8111 8.98295 26.2401 8.75568 25.5128 8.75568C25.0241 8.75568 24.5923 8.8608 24.2173 9.07102C23.848 9.28125 23.5582 9.58807 23.348 9.99148C23.1435 10.3892 23.0384 10.8693 23.0327 11.4318ZM41.2947 5.90909V8.63636H33.4112V5.90909H41.2947ZM35.201 2.77273H38.8317V14.9773C38.8317 15.3125 38.8828 15.5739 38.9851 15.7614C39.0874 15.9432 39.2294 16.071 39.4112 16.1449C39.5987 16.2187 39.8146 16.2557 40.0589 16.2557C40.2294 16.2557 40.3999 16.2415 40.5703 16.2131C40.7408 16.179 40.8714 16.1534 40.9624 16.1364L41.5334 18.8381C41.3516 18.8949 41.0959 18.9602 40.7663 19.0341C40.4368 19.1136 40.0362 19.1619 39.5646 19.179C38.6896 19.2131 37.9226 19.0966 37.2635 18.8295C36.6101 18.5625 36.1016 18.1477 35.7379 17.5852C35.3743 17.0227 35.1953 16.3125 35.201 15.4545V2.77273ZM43.6598 19V5.90909H47.1797V8.19318H47.3161C47.5547 7.38068 47.9553 6.76705 48.5178 6.35227C49.0803 5.93182 49.728 5.72159 50.4609 5.72159C50.6428 5.72159 50.8388 5.73295 51.049 5.75568C51.2592 5.77841 51.4439 5.80966 51.603 5.84943V9.07102C51.4325 9.01989 51.1967 8.97443 50.8956 8.93466C50.5945 8.89489 50.3189 8.875 50.0689 8.875C49.5348 8.875 49.0575 8.99148 48.6371 9.22443C48.2223 9.4517 47.8928 9.76989 47.6484 10.179C47.4098 10.5881 47.2905 11.0597 47.2905 11.5938V19H43.6598ZM58.8366 19.2557C57.4901 19.2557 56.331 18.983 55.3594 18.4375C54.3935 17.8864 53.6491 17.108 53.1264 16.1023C52.6037 15.0909 52.3423 13.8949 52.3423 12.5142C52.3423 11.1676 52.6037 9.9858 53.1264 8.96875C53.6491 7.9517 54.3849 7.15909 55.3338 6.59091C56.2884 6.02273 57.4077 5.73864 58.6918 5.73864C59.5554 5.73864 60.3594 5.87784 61.1037 6.15625C61.8537 6.42898 62.5071 6.84091 63.0639 7.39205C63.6264 7.94318 64.0639 8.63636 64.3764 9.47159C64.6889 10.3011 64.8452 11.2727 64.8452 12.3864V13.3835H53.7912V11.1335H61.4276C61.4276 10.6108 61.3139 10.1477 61.0866 9.74432C60.8594 9.34091 60.544 9.02557 60.1406 8.7983C59.7429 8.56534 59.2798 8.44886 58.7514 8.44886C58.2003 8.44886 57.7116 8.5767 57.2855 8.83239C56.8651 9.08239 56.5355 9.42045 56.2969 9.84659C56.0582 10.267 55.9361 10.7358 55.9304 11.2528V13.392C55.9304 14.0398 56.0497 14.5994 56.2884 15.071C56.5327 15.5426 56.8764 15.9062 57.3196 16.1619C57.7628 16.4176 58.2884 16.5455 58.8963 16.5455C59.2997 16.5455 59.669 16.4886 60.0043 16.375C60.3395 16.2614 60.6264 16.0909 60.8651 15.8636C61.1037 15.6364 61.2855 15.358 61.4105 15.0284L64.7685 15.25C64.598 16.0568 64.2486 16.7614 63.7202 17.3636C63.1974 17.9602 62.5213 18.4261 61.6918 18.7614C60.8679 19.0909 59.9162 19.2557 58.8366 19.2557Z" fill="#EF5B25"/>
<path d="M67.2145 19V5.90909H70.8452V19H67.2145ZM69.0384 4.22159C68.4986 4.22159 68.0355 4.04261 67.6491 3.68466C67.2685 3.32102 67.0781 2.88636 67.0781 2.38068C67.0781 1.88068 67.2685 1.4517 67.6491 1.09375C68.0355 0.730113 68.4986 0.548295 69.0384 0.548295C69.5781 0.548295 70.0384 0.730113 70.419 1.09375C70.8054 1.4517 70.9986 1.88068 70.9986 2.38068C70.9986 2.88636 70.8054 3.32102 70.419 3.68466C70.0384 4.04261 69.5781 4.22159 69.0384 4.22159ZM77.3842 11.4318V19H73.7536V5.90909H77.2138V8.21875H77.3672C77.657 7.45739 78.1428 6.85511 78.8246 6.41193C79.5064 5.96307 80.3331 5.73864 81.3047 5.73864C82.2138 5.73864 83.0064 5.9375 83.6825 6.33523C84.3587 6.73295 84.8842 7.30114 85.2592 8.03977C85.6342 8.77273 85.8217 9.64773 85.8217 10.6648V19H82.1911V11.3125C82.1967 10.5114 81.9922 9.88636 81.5774 9.4375C81.1626 8.98295 80.5916 8.75568 79.8643 8.75568C79.3757 8.75568 78.9439 8.8608 78.5689 9.07102C78.1996 9.28125 77.9098 9.58807 77.6996 9.99148C77.495 10.3892 77.3899 10.8693 77.3842 11.4318ZM90.8054 19.2216C90.2429 19.2216 89.7599 19.0227 89.3565 18.625C88.9588 18.2216 88.7599 17.7386 88.7599 17.1761C88.7599 16.6193 88.9588 16.142 89.3565 15.7443C89.7599 15.3466 90.2429 15.1477 90.8054 15.1477C91.3509 15.1477 91.8281 15.3466 92.2372 15.7443C92.6463 16.142 92.8509 16.6193 92.8509 17.1761C92.8509 17.5511 92.7543 17.8949 92.5611 18.2074C92.3736 18.5142 92.1264 18.7614 91.8196 18.9489C91.5128 19.1307 91.1747 19.2216 90.8054 19.2216Z" fill="#292C27"/>
</svg>
